#!OML:ASF E:/inclinewalkrobotboard/Project1/Captureday1/Session1/subject1.ASF
:FULLY-SPECIFIED
:DEGREES
176
root 0 0 0 1.0392906292045947 -3.672787938271602 1.8302416370397325
lowerback 11.978665868651992 0.8494523889493176 -0.06277663234655276
upperback -4.2304404765415144 1.0787179453915487 -0.5427266136417095
thorax -11.341310304239109 0.493772509877857 -0.7840355436249944
lowerneck -5.779386871883992 1.4863785287298439 4.565062265294303
upperneck 18.034023595665722 2.941467852473475 -8.344454732332968
head 6.588858196018303 1.0740728168370772 -3.2249426023399916
rclavicle 1.8433751481097212E-16 -2.0263829919986208E-15
rhumerus 19.887083149063983 14.348707651682783 -47.737062784017986
rradius 72.2305814390743
rwrist 27.12902873171882
rhand -34.62533248103833 -57.09910754635429
rfingers 7.125020000000035
rthumb -7.778404645097238 -87.15338021878718
lclavicle -1.336229747713109E-16 -4.386507494305401E-16
lhumerus 21.030593367908118 -12.456842820678704 45.30109864102468
lradius 70.02923163544011
lwrist -22.263882633178522
lhand -44.782065960143896 -70.23621289751625
lfingers 7.125020000000026
lthumb -17.57007199148141 -40.914843395101464
rfemur -24.69589307050161 -2.3136884914136173 17.1114094600971
rtibia 54.5025909582688
rfoot -28.99517078637031 -16.654428476766462
rtoes -18.494411835868583
lfemur -25.897535405416164 2.4391594241926122 -18.063266091140967
ltibia 53.19361065464285
lfoot -30.79487958450368 -3.4554222707643802
ltoes -20.882744382364542
177
root 0 0 0 1.039318018267364 -3.6726504967924907 1.830327719911204
lowerback 11.978642921168298 0.8494790797629208 -0.06281069092990388
upperback -4.230479437844344 1.0787407201082144 -0.5427655599050705
thorax -11.341318178674932 0.493785999809682 -0.7840596162324315
lowerneck -5.779756338055101 1.4864057180750803 4.5650473177593245
upperneck 18.034247168700485 2.941471092675352 -8.344340554396808
head 6.588989222520456 1.0740897994693421 -3.2249126366700955
rclavicle 2.0731816346571797E-16 -2.0347005190249892E-15
rhumerus 19.887631572219874 14.348895636975268 -47.73778686810684
rradius 72.2314930626795
rwrist 27.12973517323151
rhand -34.62830648102407 -57.10389672447742
rfingers 7.125020000000035
rthumb -7.781383743131753 -87.15841546853859
lclavicle -1.1067856618030721E-16 -4.50434931717396E-16
lhumerus 21.02956451239014 -12.4554416167068 45.301506516015706
lradius 70.02925501483136
lwrist -22.26473536508641
lhand -44.782665616074325 -70.24345129509072
lfingers 7.125020000000026
lthumb -17.57077138073051 -40.92176530923244
rfemur -24.696782165330678 -2.314719443311913 17.11122713665986
rtibia 54.508195502961144
rfoot -28.99499362165654 -16.654655796250054
rtoes -18.49660171124808
lfemur -25.899704459673075 2.439485407844769 -18.06360889345458
ltibia 53.196430260007745
lfoot -30.791701255976776 -3.457025988214028
ltoes -20.87885109170005
178
root 0 0 0 1.0393650298793151 -3.672529851874779 1.8303679190418707
lowerback 11.978639623061854 0.8494927544075617 -0.06285352777076705
upperback -4.230511056642769 1.0787507490060249 -0.5427925278079981
thorax -11.341350235736073 0.49379187498308097 -0.7840671457288844
lowerneck -5.780028349971213 1.4864267773255715 4.564999561796647
upperneck 18.034400578639886 2.941483581399164 -8.344208238315762
head 6.58908511074973 1.0740975829043982 -3.224863240675296
rclavicle 1.9899716723537813E-16 -2.0346085677508534E-15
rhumerus 19.886639301298484 14.347856315112782 -47.73777420884148
rradius 72.23073043580945
rwrist 27.13009772423861
rhand -34.62888764355192 -57.10449974150665
rfingers 7.125020000000035
rthumb -7.781927544798606 -87.15905667672864
lclavicle -1.1851635068012345E-16 -4.493455547596132E-16
lhumerus 21.029475967455525 -12.455119691213264 45.301958821316795
lradius 70.0290251889656
lwrist -22.26455887941675
lhand -44.782989836762695 -70.24504039080546
lfingers 7.125020000000026
lthumb -17.57109421556565 -40.923335819007434
rfemur -24.697108210838856 -2.3148840781956603 17.111253034609316
rtibia 54.509124158225816
rfoot -28.994655240112415 -16.654601068577435
rtoes -18.496031756174705
lfemur -25.900420138726457 2.4395383612027404 -18.063743312110397
ltibia 53.19762172404093
lfoot -30.791074147272106 -3.4573859790833743
ltoes -20.87709967588193
179
root 0 0 0 1.039438477176073 -3.672383569689921 1.830407559179076
lowerback 11.978650556390185 0.8495050522882492 -0.06290447676061975
upperback -4.230547016671482 1.078758694805527 -0.5428209772053729
thorax -11.341396907892962 0.4937965578590791 -0.7840716554493987
lowerneck -5.780361567825123 1.4864417651216235 4.564920671094788
upperneck 18.034568292126234 2.9414857101630325 -8.344029049448094
head 6.5891967350445215 1.074100020605866 -3.2247942782475416
rclavicle 1.951919122254859E-16 -2.0345699415795932E-15
rhumerus 19.885738133844335 14.346968280083981 -47.73798111571305
rradius 72.23007193364343
rwrist 27.130285529903507
rhand -34.62960656494848 -57.10515692149953
rfingers 7.125020000000035
rthumb -7.782617000633243 -87.15971561725974
lclavicle -1.2231627117599165E-16 -4.486544851945446E-16
lhumerus 21.0292445769938 -12.454704813652139 45.30246389877096
lradius 70.0287146007085
lwrist -22.26438909881501
lhand -44.783262808816076 -70.2464830364115
lfingers 7.125020000000026
lthumb -17.571352874279317 -40.924822100566345
rfemur -24.697250373837687 -2.3149244419460087 17.111218767919656
rtibia 54.50937267928296
rfoot -28.994383797659747 -16.654631690322645
rtoes -18.495667565583137
lfemur -25.901251425885466 2.43948108530026 -18.06387418402834
ltibia 53.19818682766954
lfoot -30.79092750363991 -3.4574508295662434
ltoes -20.875277827561003
180
root 0 0 0 1.039287878922888 -3.672793104765833 1.8302398869133432
lowerback 11.978665985698733 0.8494517392486187 -0.0627744944612961
upperback -4.230438756198066 1.0787174602090175 -0.5427254036505995
thorax -11.341308471418422 0.49377222927257164 -0.7840353147654069
lowerneck -5.779373701512232 1.4863775494127809 4.56506489940976
upperneck 18.03401585620898 2.9414672311248076 -8.344461415749937
head 6.588853436941175 1.0740724556567498 -3.224945150432238
rclavicle 1.8439485428766342E-16 -2.0263736118875094E-15
rhumerus 19.88710484420563 14.348728829624289 -47.737055957845826
rradius 72.23059625658045
rwrist 27.12902428086221
rhand -34.625310659176925 -57.099084502713765
rfingers 7.125020000000035
rthumb -7.778383814632585 -87.15335692599947
lclavicle -1.3356238260761272E-16 -4.386509884193121E-16
lhumerus 21.030600525988234 -12.456855763536264 45.30108410669785
lradius 70.02924012543428
lwrist -22.263886150472008
lhand -44.7820579219939 -70.2361664733188
lfingers 7.125020000000026
lthumb -17.570064291594857 -40.91479623821262
rfemur -24.695892003169728 -2.313688427954081 17.111410002655617
rtibia 54.50259065716985
rfoot -28.99517515071016 -16.65442852750005
rtoes -18.494415496678997
lfemur -25.89752250220356 2.4391648638860244 -18.063262154650452
ltibia 53.19361225139005
lfoot -30.794877456900522 -3.4554194431155194
ltoes -20.88277799436085
